<?xml version="1.0" encoding="UTF-8" standalone="no"?>
<!-- Created with Inkscape (http://www.inkscape.org/) -->

<svg
   xmlns:dc="http://purl.org/dc/elements/1.1/"
   xmlns:cc="http://creativecommons.org/ns#"
   xmlns:rdf="http://www.w3.org/1999/02/22-rdf-syntax-ns#"
   xmlns:svg="http://www.w3.org/2000/svg"
   xmlns="http://www.w3.org/2000/svg"
   xmlns:sodipodi="http://sodipodi.sourceforge.net/DTD/sodipodi-0.dtd"
   xmlns:inkscape="http://www.inkscape.org/namespaces/inkscape"
   width="310"
   height="310"
   id="svg2"
   version="1.1"
   inkscape:version="0.48.5 r10040"
   sodipodi:docname="hat.svg"
   inkscape:export-filename="/Users/rug/sites/cm/favicon/hat310w.png"
   inkscape:export-xdpi="90"
   inkscape:export-ydpi="90">
  <defs
     id="defs4">
    <clipPath
       id="clipPath3282"
       clipPathUnits="userSpaceOnUse">
      <path
         id="path3284"
         d="M 0,560 960,560 960,0 0,0 0,560 z" />
    </clipPath>
  </defs>
  <sodipodi:namedview
     id="base"
     pagecolor="#ffffff"
     bordercolor="#666666"
     borderopacity="1.0"
     inkscape:pageopacity="0.0"
     inkscape:pageshadow="2"
     inkscape:zoom="0.99622847"
     inkscape:cx="291.2303"
     inkscape:cy="120.25171"
     inkscape:document-units="px"
     inkscape:current-layer="layer1"
     showgrid="false"
     inkscape:window-width="1280"
     inkscape:window-height="751"
     inkscape:window-x="0"
     inkscape:window-y="0"
     inkscape:window-maximized="1" />
  <metadata
     id="metadata7">
    <rdf:RDF>
      <cc:Work
         rdf:about="">
        <dc:format>image/svg+xml</dc:format>
        <dc:type
           rdf:resource="http://purl.org/dc/dcmitype/StillImage" />
        <dc:title></dc:title>
      </cc:Work>
    </rdf:RDF>
  </metadata>
  <g
     inkscape:label="Layer 1"
     inkscape:groupmode="layer"
     id="layer1"
     transform="translate(0,-742.36218)">
    <g
       transform="matrix(2.4936594,0,0,-2.4936594,-1374.1337,1799.8471)"
       inkscape:label="corvallis_menu"
       id="g3276">
      <g
         id="g3278">
        <g
           clip-path="url(#clipPath3282)"
           id="g3280">
          <g
             transform="translate(175.0649,217.3818)"
             id="g3286" />
          <g
             transform="translate(233.0298,249.3447)"
             id="g3290" />
          <g
             transform="translate(352.2461,265.3018)"
             id="g3294" />
          <g
             transform="translate(365.0801,255.1602)"
             id="g3298" />
          <g
             transform="translate(440.6836,224.4473)"
             id="g3302" />
          <g
             transform="translate(483.749,224.4473)"
             id="g3306" />
          <g
             transform="translate(508.3096,214.5937)"
             id="g3310" />
          <g
             transform="translate(543.876,222.3809)"
             id="g3314" />
          <g
             transform="translate(565.3809,218.3428)"
             id="g3318" />
          <g
             transform="translate(658.7451,299.4316)"
             id="g3322">
            <path
               id="path3324"
               style="fill:#000000;fill-opacity:1;fill-rule:nonzero;stroke:none"
               d="m -0.57142857,75.428572 c -4.40600003,-1.218 -8.93900003,-1.064 -13.43100043,-1.391 -2.79,0.274 -5.585,0.511 -8.37,0.828 -9.624,1.092 -19.267,1.801 -28.957,1.272 -1.763,-0.098 -4.183,0.209 -3.91,-2.708 0.321,-3.419 2.681,-1.129 3.868,-0.969 11.363,1.54 22.714,0.946 34.085,0.224 2.252,-0.143 2.461,-1.401 2.58,-3.036 -2.418831,-30.74376 -5.03928,-37.526813 2.257035,-53.871233 -2.734174,-1.883383 -54.9752,-0.926697 -57.19577,1.750056 6.593995,15.062059 4.372203,38.348767 5.428722,55.620177 0.951,5.598 3.563,7.996 9.117,9.208 1.719,0.376 3.633,-0.228 5.419,1.068 -7.271,0.725 -14.157,1.115 -18.514,-6.153 -0.283,-0.471 -0.987,-0.967 -1.502,-0.974 -9.136,-0.124 -18.363,-0.122 -25.669,6.508 -5.161998,4.683 -4.065,11.402 1.976,14.864 2.502,1.434 5.178,2.073 8.05,2.231 8.102,0.441998 15.342,-2.051 22.16,-6.537 -1.662,8.938998 -0.922,11.405998 4.825,14.235998 6.185,3.047 12.835,4.129 19.632,2.961 8.741,-1.503 11.709,-5.264 11.406,-13.651998 -0.705,-2.137 -3.116,-1.507 -4.864,-2.631 2.641,-0.374 4.811,-0.681 6.938,-0.982 -0.343,0.918 -0.647,1.734 -0.952,2.55 6.858,6.299998 15.107,7.705998 23.9580004,6.559998 7.377,-0.955 13.8769996,-6.886998 14.3829996,-12.767998 0.514,-5.979 -4.9709996,-12.067 -12.71799957,-14.208 M -67.886637,73.657546 c 3.525687,-66.6378393 -8.825908,-55.199763 -5.088791,-57.42369 3.737117,-2.223927 63.2288613,-4.670614 64.004088,-1.181518 -6.832493,6.868203 -7.38592,25.50172 -2.962103,53.199234 0.095,2.59 1.236,3.363 3.7670004,3.565 4.665,0.375 9.338,1.079 13.576,3.306 5.7309996,3.013 9.9979996,7.107 9.6979996,14.203 -0.289,6.822 -4.524,10.723998 -10.3359996,13.223998 -8.301,3.57 -16.7410004,3.373 -25.1560004,0.424 -1.776,-0.622 -2.997,-1.315 -3.549,1.377 -0.883,4.29 -4.022,6.367 -7.999,7.723 -5.162,1.757 -10.438,1.847 -15.766,1.767 -4.757,-0.07 -9.362,-0.922 -13.565,-3.196 -4.427,-2.398 -6.087,-6.685 -6.82,-11.701998 -7.742,3.412998 -15.475,4.207998 -23.368,3.463998 -7.447,-0.702 -12.521997,-5.083998 -13.644997,-11.490998 -1.028,-5.859 1.838,-10.509 8.638997,-14.044 2.373,-1.234 4.886,-2.03 7.489,-2.645 6.929,-1.636 13.904,-0.85 20.977,-0.234"
               inkscape:connector-curvature="0"
               sodipodi:nodetypes="ccccccscccccccccccccccccccccczccccccccccccscccc" />
          </g>
          <g
             transform="translate(610.1211,288.9121)"
             id="g3326">
            <path
               id="path3328"
               style="fill:#000000;fill-opacity:1;fill-rule:nonzero;stroke:none"
               d="m -0.57142857,75.428572 c 3.19099997,1.123 6.48899997,0.934 9.76299997,0.957 7.1729996,0.052 14.3459996,0.016 20.2349996,0.016 -7.297,1.969 -16.281,2.737 -25.2689996,3.404 -1.83,0.136 -3.71199997,-0.392 -5.567,-0.644 -1.777,-0.239 -1.671,-1.566 -1.565,-2.844 0.159,-1.952 1.525,-1.198 2.40300003,-0.889"
               inkscape:connector-curvature="0" />
          </g>
          <g
             transform="translate(699.2178,215.459)"
             id="g3330" />
          <g
             transform="translate(769.3906,265.542)"
             id="g3334" />
          <g
             transform="translate(830.6709,264.3887)"
             id="g3338" />
          <g
             transform="translate(256.6899,239.4248)"
             id="g3342" />
          <g
             transform="translate(256.6899,239.4248)"
             id="g3346" />
        </g>
      </g>
    </g>
    <path
       id="path3328-2"
       style="fill:#000000;fill-opacity:1;fill-rule:nonzero;stroke:none"
       d="m 213.81403,987.5432 c -11.25779,1.57738 -22.89306,1.31191 -34.44366,1.34421 -25.30621,0.073 -48.61721,0.0225 -69.39349,0.0225 25.74368,2.76567 55.44387,3.8444 87.15333,4.78128 6.45621,0.19111 13.09586,-0.55062 19.64026,-0.90457 6.26922,-0.33569 5.89526,-2.19961 5.52129,-3.99469 -0.56095,-2.74179 -5.38016,-1.68272 -8.47773,-1.2487"
       inkscape:connector-curvature="0"
       sodipodi:nodetypes="ccccccc" />
  </g>
</svg>
