<?xml version="1.0" encoding="UTF-8" standalone="no"?>
<!-- Generator: Adobe Illustrator 16.0.4, SVG Export Plug-In . SVG Version: 6.00 Build 0)  -->

<svg
   xmlns:dc="http://purl.org/dc/elements/1.1/"
   xmlns:cc="http://creativecommons.org/ns#"
   xmlns:rdf="http://www.w3.org/1999/02/22-rdf-syntax-ns#"
   xmlns:svg="http://www.w3.org/2000/svg"
   xmlns="http://www.w3.org/2000/svg"
   xmlns:sodipodi="http://sodipodi.sourceforge.net/DTD/sodipodi-0.dtd"
   xmlns:inkscape="http://www.inkscape.org/namespaces/inkscape"
   version="1.1"
   id="Capa_1"
   x="0px"
   y="0px"
   width="181.74001"
   height="176"
   viewBox="0 0 181.74001 176"
   enable-background="new 0 0 612 792"
   xml:space="preserve"
   inkscape:version="0.48.5 r10040"
   sodipodi:docname="shopping11.svg"><metadata
     id="metadata9"><rdf:RDF><cc:Work
         rdf:about=""><dc:format>image/svg+xml</dc:format><dc:type
           rdf:resource="http://purl.org/dc/dcmitype/StillImage" /><dc:title></dc:title></cc:Work></rdf:RDF></metadata><defs
     id="defs7" /><sodipodi:namedview
     pagecolor="#ffffff"
     bordercolor="#666666"
     borderopacity="1"
     objecttolerance="10"
     gridtolerance="10"
     guidetolerance="10"
     inkscape:pageopacity="0"
     inkscape:pageshadow="2"
     inkscape:window-width="1280"
     inkscape:window-height="751"
     id="namedview5"
     showgrid="false"
     inkscape:zoom="2.2187139"
     inkscape:cx="47.818873"
     inkscape:cy="112.40927"
     inkscape:window-x="0"
     inkscape:window-y="0"
     inkscape:window-maximized="1"
     inkscape:current-layer="Capa_1"
     fit-margin-top="0"
     fit-margin-left="0"
     fit-margin-right="0"
     fit-margin-bottom="0"
     showguides="true"
     inkscape:guide-bbox="true" /><path
     d="m 179.62429,50.21041 -15.61904,57.70923 c -1.65216,6.10439 -2.19822,7.70965 -9.22305,7.71679 l -94.538801,0.0514 c -6.885962,-0.0389 -6.246034,-1.28427 -7.641564,5.08229 -2.18473,7.30197 0.283508,5.10297 6.951889,5.44967 l 91.809936,-0.41878 c 9.04479,-0.0413 7.68742,-0.91443 5.88449,7.44609 -1.74417,8.08807 -0.77373,7.91833 -8.58448,7.91833 0,0 -72.261773,0 -108.39266,0 -9.621812,0 -9.510471,0.52564 -7.820359,-6.73293 1.795065,-7.70931 6.42335,-28.9685 6.42335,-28.9685 L 31.62604,32.763938 C 30.908249,25.564191 32.238371,24.719364 25.695537,22.615096 L 8.5868301,17.112695 C 3.4175924,15.233362 1.2026726,11.95574 2.3713001,7.2831307 4.2556687,2.2211804 7.5403097,1.8390528 12.20086,3.0675967 l 27.66915,8.8220493 c 8.000761,2.550968 6.398349,5.851977 7.218045,13.639084 0.991499,9.419237 0.349033,7.68969 9.374239,8.123922 l 114.941456,5.530197 c 11.2192,0.539791 11.02276,0.67393 8.22054,11.027561 z m -125.1177,96.01998 c 4.01002,0 7.41854,1.40351 10.22556,4.21118 2.80701,2.80635 4.21052,6.21553 4.21052,10.22555 0,4.00937 -1.40351,7.45196 -4.21052,10.32581 -2.80702,2.87385 -6.21554,4.31077 -10.22556,4.31077 -4.01002,0 -7.41854,-1.43692 -10.22555,-4.31077 -2.80702,-2.87353 -4.21053,-6.31579 -4.21053,-10.32581 0,-4.01002 1.40351,-7.4192 4.21053,-10.22555 2.80701,-2.80767 6.21553,-4.21118 10.22555,-4.21118 z m 85.61397,0 c 4.00937,0 7.41854,1.40351 10.22556,4.21118 2.80636,2.80635 4.21052,6.21553 4.21052,10.22555 0,4.00937 -1.40351,7.45196 -4.21052,10.32581 -2.80702,2.87385 -6.21619,4.31077 -10.22556,4.31077 -4.01002,0 -7.41919,-1.43692 -10.22555,-4.31077 -2.80702,-2.87353 -4.21118,-6.31579 -4.21118,-10.32581 0,-4.01002 1.40351,-7.4192 4.21118,-10.22555 2.80701,-2.80767 6.21553,-4.21118 10.22555,-4.21118 z"
     id="path3"
     inkscape:connector-curvature="0"
     sodipodi:nodetypes="ssscccssssscsscccsssssscssscscsscssscscs" /><g
     inkscape:groupmode="layer"
     id="layer1"
     inkscape:label="cart"
     sodipodi:insensitive="true" /><g
     inkscape:groupmode="layer"
     id="layer2"
     inkscape:label="num"><text
       xml:space="preserve"
       style="font-size:80px;font-style:italic;font-variant:normal;font-weight:bold;font-stretch:normal;line-height:81.00000024%;letter-spacing:0px;word-spacing:0px;fill:#ffffff;fill-opacity:1;stroke:none;font-family:Verdana;-inkscape-font-specification:Verdana Bold Italic"
       x="75.869202"
       y="104.26106"
       id="text3011"
       sodipodi:linespacing="81%"><tspan
         sodipodi:role="line"
         id="tspan3013"
         x="75.869202"
         y="104.26106">0</tspan></text>
</g></svg>