<?xml version="1.0" encoding="UTF-8" standalone="no"?>
<!-- Generator: Adobe Illustrator 16.0.4, SVG Export Plug-In . SVG Version: 6.00 Build 0)  -->

<svg
   xmlns:dc="http://purl.org/dc/elements/1.1/"
   xmlns:cc="http://creativecommons.org/ns#"
   xmlns:rdf="http://www.w3.org/1999/02/22-rdf-syntax-ns#"
   xmlns:svg="http://www.w3.org/2000/svg"
   xmlns="http://www.w3.org/2000/svg"
   xmlns:sodipodi="http://sodipodi.sourceforge.net/DTD/sodipodi-0.dtd"
   xmlns:inkscape="http://www.inkscape.org/namespaces/inkscape"
   version="1.1"
   id="Capa_1"
   x="0px"
   y="0px"
   width="150"
   height="135"
   viewBox="0 0 150 135"
   enable-background="new 0 0 612 792"
   xml:space="preserve"
   inkscape:version="0.48.5 r10040"
   sodipodi:docname="cart.svg"><metadata
     id="metadata9"><rdf:RDF><cc:Work
         rdf:about=""><dc:format>image/svg+xml</dc:format><dc:type
           rdf:resource="http://purl.org/dc/dcmitype/StillImage" /><dc:title /></cc:Work></rdf:RDF></metadata><defs
     id="defs7" /><sodipodi:namedview
     pagecolor="#ffffff"
     bordercolor="#666666"
     borderopacity="1"
     objecttolerance="10"
     gridtolerance="10"
     guidetolerance="10"
     inkscape:pageopacity="0"
     inkscape:pageshadow="2"
     inkscape:window-width="1280"
     inkscape:window-height="751"
     id="namedview5"
     showgrid="false"
     inkscape:zoom="0.78443382"
     inkscape:cx="-91.072013"
     inkscape:cy="45.223063"
     inkscape:window-x="0"
     inkscape:window-y="0"
     inkscape:window-maximized="1"
     inkscape:current-layer="layer2"
     fit-margin-top="0"
     fit-margin-left="0"
     fit-margin-right="0"
     fit-margin-bottom="0"
     showguides="true"
     inkscape:guide-bbox="true" /><path
     d="m 127.9177,44.107908 -9.6036,35.483387 c -1.01585,3.753376 -1.35161,4.740395 -5.67094,4.744786 l -58.128595,0.0316 c -4.233938,-0.02392 -3.840469,-0.789653 -4.69853,3.124922 -1.343314,4.489726 0.17432,3.137639 4.274472,3.350812 l 56.450723,-0.257493 c 5.56132,-0.02539 4.72672,-0.562251 3.61817,4.578345 -1.07242,4.973078 -0.47575,4.868698 -5.27829,4.868698 0,0 -44.43125,0 -66.64687,0 -5.916115,0 -5.847655,0.32321 -4.808464,-4.139848 C 38.529499,91.152933 41.375269,78.0814 41.375269,78.0814 L 36.918751,33.380682 c -0.441345,-4.426873 0.376501,-4.946327 -3.646459,-6.240167 L 22.752747,23.757279 c -3.178383,-1.155535 -4.540261,-3.170831 -3.821713,-6.043855 1.158633,-3.112416 3.178243,-3.347372 6.043854,-2.591983 L 41.98768,20.54581 c 4.919388,1.5685 3.934121,3.598177 4.438124,8.386195 0.609637,5.79156 0.214608,4.728122 5.763892,4.995118 l 70.673484,3.400322 c 6.89829,0.3319 6.77751,0.414377 5.05452,6.780463 z M 50.987202,103.14724 c 2.46562,0 4.561401,0.86297 6.28734,2.5893 1.725931,1.72554 2.588899,3.82171 2.588899,6.28734 0,2.46522 -0.862968,4.58195 -2.588899,6.34897 -1.725939,1.76704 -3.82172,2.65055 -6.28734,2.65055 -2.465622,0 -4.561402,-0.88351 -6.287334,-2.65055 -1.725937,-1.76682 -2.588907,-3.88335 -2.588907,-6.34897 0,-2.46563 0.86297,-4.5618 2.588907,-6.28734 1.725932,-1.72633 3.821712,-2.5893 6.287334,-2.5893 z m 52.641038,0 c 2.46523,0 4.56141,0.86297 6.28734,2.5893 1.72553,1.72554 2.58889,3.82171 2.58889,6.28734 0,2.46522 -0.86295,4.58195 -2.58889,6.34897 -1.72593,1.76704 -3.82211,2.65055 -6.28734,2.65055 -2.46562,0 -4.561797,-0.88351 -6.287328,-2.65055 -1.725952,-1.76682 -2.589313,-3.88335 -2.589313,-6.34897 0,-2.46563 0.862966,-4.5618 2.589313,-6.28734 1.725917,-1.72633 3.821708,-2.5893 6.287328,-2.5893 z"
     id="path3"
     inkscape:connector-curvature="0"
     sodipodi:nodetypes="ssscccssssscsscccsssssscssscscsscssscscs" /><g
     inkscape:groupmode="layer"
     id="layer1"
     inkscape:label="cart"
     sodipodi:insensitive="true"
     transform="translate(0,-41)" /><g
     inkscape:groupmode="layer"
     id="layer2"
     inkscape:label="num"
     transform="translate(0,-41)"><text
       xml:space="preserve"
       style="font-size:49.18920517px;font-style:italic;font-variant:normal;font-weight:bold;font-stretch:normal;line-height:81.00000024%;letter-spacing:0px;word-spacing:0px;fill:#ffffff;fill-opacity:1;stroke:none;font-family:Verdana;-inkscape-font-specification:Verdana Bold Italic"
       x="64.12233"
       y="118.34175"
       id="text3011"
       sodipodi:linespacing="81%"><tspan
         sodipodi:role="line"
         id="tspan3013"
         x="64.12233"
         y="118.34175">0</tspan></text>
</g></svg>