<?xml version="1.0" encoding="UTF-8" standalone="no"?>
<!-- Created with Inkscape (http://www.inkscape.org/) -->

<svg
   xmlns:dc="http://purl.org/dc/elements/1.1/"
   xmlns:cc="http://creativecommons.org/ns#"
   xmlns:rdf="http://www.w3.org/1999/02/22-rdf-syntax-ns#"
   xmlns:svg="http://www.w3.org/2000/svg"
   xmlns="http://www.w3.org/2000/svg"
   xmlns:sodipodi="http://sodipodi.sourceforge.net/DTD/sodipodi-0.dtd"
   xmlns:inkscape="http://www.inkscape.org/namespaces/inkscape"
   version="1.1"
   width="700"
   height="135"
   id="svg3480"
   xml:space="preserve"
   inkscape:version="0.48.5 r10040"
   sodipodi:docname="corvallis_menu.svg"><sodipodi:namedview
     pagecolor="#ffffff"
     bordercolor="#666666"
     borderopacity="1"
     objecttolerance="10"
     gridtolerance="10"
     guidetolerance="10"
     inkscape:pageopacity="0"
     inkscape:pageshadow="2"
     inkscape:window-width="1280"
     inkscape:window-height="751"
     id="namedview3105"
     showgrid="false"
     fit-margin-top="0"
     fit-margin-left="0"
     fit-margin-right="0"
     fit-margin-bottom="0"
     inkscape:zoom="0.77486881"
     inkscape:cx="355.45567"
     inkscape:cy="73.153386"
     inkscape:window-x="0"
     inkscape:window-y="0"
     inkscape:window-maximized="1"
     inkscape:current-layer="svg3480" /><metadata
     id="metadata3486"><rdf:RDF><cc:Work
         rdf:about=""><dc:format>image/svg+xml</dc:format><dc:type
           rdf:resource="http://purl.org/dc/dcmitype/StillImage" /><dc:title></dc:title></cc:Work></rdf:RDF></metadata><defs
     id="defs3484"><clipPath
       id="clipPath3494"><path
         d="M 0,560 960,560 960,0 0,0 0,560 z"
         id="path3496"
         inkscape:connector-curvature="0" /></clipPath></defs><g
     transform="matrix(0.94981789,0,0,-0.94981789,-98.735193,321.8599)"
     id="g3488"><g
       id="g3490"><g
         clip-path="url(#clipPath3494)"
         id="g3492"><g
           transform="translate(175.0649,217.3818)"
           id="g3498"><path
             d="m 0,0 c -0.545,-2.244 -1.297,-4.229 -2.259,-5.96 -0.192,-0.321 -0.481,-0.48 -0.865,-0.48 -4.038,-0.642 -8.091,-1.17 -12.16,-1.586 -4.07,-0.416 -8.188,-0.625 -12.353,-0.625 -5.255,0 -10.11,0.848 -14.563,2.547 -4.455,1.697 -8.283,4.1 -11.487,7.209 -3.206,3.108 -5.72,6.826 -7.546,11.152 -1.827,4.325 -2.74,9.115 -2.74,14.371 0,5.638 1.073,11.069 3.221,16.293 2.146,5.223 5.205,9.853 9.18,13.891 1.473,1.538 3.331,2.819 5.575,3.844 2.243,1.025 4.614,1.859 7.114,2.5 2.499,0.64 5.013,1.089 7.546,1.346 2.53,0.255 4.821,0.385 6.873,0.385 2.37,0 4.71,-0.145 7.017,-0.433 2.307,-0.289 4.581,-0.594 6.825,-0.914 1.666,-0.257 3.331,-0.497 4.998,-0.721 1.666,-0.225 3.301,-0.4 4.903,-0.528 0.64,0 0.961,-0.289 0.961,-0.865 -0.064,-2.948 -0.257,-5.881 -0.576,-8.796 -0.322,-2.917 -0.738,-5.816 -1.25,-8.699 -0.129,-0.514 -0.514,-0.77 -1.154,-0.77 -0.576,0 -0.929,0.256 -1.057,0.77 -0.449,2.755 -1.314,5.173 -2.596,7.257 -1.282,2.082 -2.852,3.829 -4.71,5.239 -1.859,1.409 -3.974,2.467 -6.344,3.173 -2.372,0.704 -4.903,1.056 -7.594,1.056 -4.422,0 -8.411,-0.705 -11.968,-2.114 -3.557,-1.41 -6.601,-3.381 -9.132,-5.912 -2.532,-2.532 -4.486,-5.609 -5.864,-9.229 -1.379,-3.621 -2.067,-7.641 -2.067,-12.063 0,-4.614 0.818,-9.069 2.451,-13.362 1.635,-4.294 3.925,-8.108 6.873,-11.439 2.948,-3.333 6.425,-5.993 10.431,-7.978 4.004,-1.988 8.411,-2.981 13.217,-2.981 2.755,0 5.11,0.288 7.065,0.865 1.954,0.578 3.668,1.457 5.143,2.644 1.474,1.184 2.771,2.675 3.893,4.47 1.121,1.794 2.259,3.877 3.413,6.248 L 0.529,9.613 C 0.721,8.522 0.817,7.402 0.817,6.248 0.817,4.326 0.544,2.242 0,0"
             id="path3500"
             style="fill:#f7931e;fill-opacity:1;fill-rule:nonzero;stroke:none"
             inkscape:connector-curvature="0" /></g><g
           transform="translate(233.0298,249.3447)"
           id="g3502"><path
             d="m 0,0 c -1.122,3.043 -2.691,5.72 -4.71,8.026 -2.019,2.307 -4.455,4.134 -7.306,5.48 -2.852,1.346 -6.008,2.018 -9.468,2.018 -3.205,0 -6.169,-0.513 -8.892,-1.538 -2.725,-1.026 -5.063,-2.484 -7.018,-4.374 -1.955,-1.89 -3.477,-4.166 -4.565,-6.825 -1.091,-2.66 -1.635,-5.656 -1.635,-8.987 0,-3.398 0.577,-6.633 1.731,-9.709 1.153,-3.076 2.771,-5.784 4.854,-8.123 2.082,-2.34 4.566,-4.198 7.45,-5.575 2.884,-1.379 6.087,-2.068 9.613,-2.068 3.268,0 6.232,0.529 8.891,1.587 2.659,1.057 4.934,2.562 6.826,4.518 1.889,1.954 3.348,4.293 4.374,7.017 1.023,2.723 1.538,5.72 1.538,8.988 C 1.683,-6.233 1.121,-3.045 0,0 M 7.402,-20.956 C 5.511,-24.193 3.043,-26.901 0,-29.079 c -3.044,-2.18 -6.474,-3.814 -10.286,-4.902 -3.813,-1.091 -7.642,-1.634 -11.487,-1.634 -3.845,0 -7.61,0.72 -11.295,2.162 -3.686,1.442 -6.937,3.413 -9.757,5.912 -2.821,2.499 -5.094,5.463 -6.825,8.892 -1.73,3.427 -2.595,7.128 -2.595,11.103 0,4.357 0.945,8.233 2.835,11.631 1.89,3.396 4.358,6.264 7.402,8.603 3.043,2.339 6.504,4.118 10.382,5.335 3.877,1.217 7.834,1.827 11.872,1.827 3.973,0 7.77,-0.802 11.391,-2.403 3.62,-1.603 6.809,-3.749 9.565,-6.441 2.755,-2.692 4.95,-5.832 6.585,-9.42 1.633,-3.59 2.451,-7.37 2.451,-11.343 0,-4.23 -0.946,-7.964 -2.836,-11.199"
             id="path3504"
             style="fill:#f7931e;fill-opacity:1;fill-rule:nonzero;stroke:none"
             inkscape:connector-curvature="0" /></g><g
           transform="translate(352.2461,265.3018)"
           id="g3506"><path
             d="M 0,0 C -0.225,-0.033 -0.497,-0.081 -0.817,-0.145 -1.458,-0.273 -2.066,-0.449 -2.644,-0.673 -3.22,-0.898 -3.701,-1.202 -4.085,-1.586 -4.534,-2.163 -5.015,-2.9 -5.527,-3.797 -6.041,-4.695 -6.57,-5.656 -7.113,-6.681 c -0.546,-1.026 -1.075,-2.1 -1.586,-3.22 -0.514,-1.122 -0.995,-2.163 -1.442,-3.124 -0.322,-0.706 -0.61,-1.379 -0.865,-2.019 -0.257,-0.642 -0.546,-1.219 -0.866,-1.73 -0.513,-1.091 -1.09,-2.276 -1.73,-3.557 -0.641,-1.283 -1.218,-2.499 -1.73,-3.653 -2.18,-4.615 -4.374,-9.18 -6.585,-13.699 -2.211,-4.517 -4.503,-9.051 -6.873,-13.601 -0.257,-0.257 -0.593,-0.402 -1.009,-0.433 -0.418,-0.033 -0.754,0.079 -1.01,0.336 -2.691,4.038 -5.176,8.508 -7.45,13.41 -2.275,4.903 -4.438,9.757 -6.488,14.564 -0.961,2.178 -1.908,4.374 -2.836,6.585 -0.93,2.211 -1.875,4.277 -2.836,6.2 l 0.096,0 c -0.257,0.385 -0.48,0.801 -0.673,1.249 -0.192,0.448 -0.417,0.929 -0.672,1.442 -0.514,0.961 -0.978,1.907 -1.395,2.836 -0.417,0.928 -0.85,1.714 -1.297,2.355 -0.385,0.769 -0.913,1.281 -1.586,1.538 -0.673,0.256 -1.394,0.481 -2.163,0.673 -0.514,0.128 -1.042,0.256 -1.586,0.384 -0.545,0.128 -1.074,0.352 -1.586,0.673 -0.514,0.193 -0.673,0.496 -0.481,0.913 0.192,0.416 0.577,0.625 1.154,0.625 1.088,-0.064 2.129,-0.081 3.124,-0.047 0.993,0.031 2.033,0.047 3.124,0.047 l 3.557,0 c 1.73,0 3.331,0.048 4.806,0.145 1.474,0.096 3.3,0.143 5.479,0.143 0.577,0 0.817,-0.288 0.721,-0.864 -0.096,-0.577 -0.432,-0.834 -1.009,-0.769 -0.449,0.063 -0.994,-0.129 -1.634,-0.577 -0.642,-0.449 -1.154,-0.769 -1.539,-0.961 1.347,-4.936 3.06,-9.822 5.144,-14.66 2.081,-4.839 4.212,-9.597 6.392,-14.275 0.384,-0.897 0.753,-1.698 1.106,-2.403 0.351,-0.705 0.672,-1.394 0.961,-2.067 0.288,-0.673 0.591,-1.362 0.913,-2.066 0.32,-0.706 0.673,-1.538 1.057,-2.5 l 2.211,4.422 c 1.346,2.692 2.803,5.672 4.374,8.94 1.57,3.269 3.043,6.489 4.422,9.661 1.378,3.172 2.531,6.104 3.461,8.795 0.928,2.692 1.394,4.807 1.394,6.345 0,0.128 -0.353,0.255 -1.058,0.385 -0.706,0.127 -1.314,0.223 -1.826,0.288 -0.13,0 -0.257,0.014 -0.385,0.048 -0.129,0.032 -0.225,0.048 -0.288,0.048 -0.642,0 -0.961,0.255 -0.961,0.769 0,0.577 0.319,0.865 0.961,0.865 1.346,0.063 2.706,0.112 4.085,0.144 1.377,0.032 2.771,0.049 4.182,0.049 1.409,0 2.788,-0.017 4.133,-0.049 1.346,-0.032 2.755,-0.081 4.23,-0.144 L 0.721,0.144 C 0.464,0.079 0.224,0.031 0,0"
             id="path3508"
             style="fill:#f7931e;fill-opacity:1;fill-rule:nonzero;stroke:none"
             inkscape:connector-curvature="0" /></g><g
           transform="translate(365.0801,255.1602)"
           id="g3510"><path
             d="m 0,0 c -1.09,-2.821 -2.066,-5.496 -2.932,-8.026 -0.865,-2.534 -1.907,-5.24 -3.124,-8.123 l 12.208,0 L 0,0 z m 26.724,-40.182 c -1.538,-0.064 -3.109,-0.095 -4.71,-0.095 -1.154,0 -2.276,0.014 -3.365,0.048 -1.09,0.031 -2.211,0.08 -3.364,0.144 -0.514,0 -0.85,0.159 -1.01,0.481 -0.161,0.319 -0.048,0.639 0.337,0.96 l 0.865,1.058 c -1.283,3.012 -2.533,5.896 -3.749,8.651 -1.218,2.755 -2.499,5.639 -3.845,8.652 l -15.477,0 c -0.513,-1.026 -1.09,-2.34 -1.73,-3.942 -0.641,-1.602 -1.283,-3.205 -1.923,-4.805 -0.641,-1.603 -1.17,-3.093 -1.586,-4.471 -0.417,-1.378 -0.625,-2.354 -0.625,-2.932 0,-0.706 0.416,-1.17 1.25,-1.393 0.832,-0.226 1.57,-0.402 2.211,-0.529 0.64,-0.065 0.945,-0.37 0.913,-0.914 -0.033,-0.544 -0.369,-0.816 -1.009,-0.816 l -16.919,0.288 0.385,1.731 c 0.64,-0.193 1.313,-0.162 2.019,0.095 0.704,0.256 1.377,0.657 2.018,1.202 0.64,0.543 1.234,1.168 1.778,1.874 0.544,0.705 0.977,1.346 1.298,1.923 1.282,3.076 2.611,6.232 3.99,9.469 1.377,3.235 2.706,6.393 3.989,9.468 1.858,4.55 3.732,9.068 5.623,13.555 1.89,4.484 3.797,8.97 5.72,13.458 0.255,0.447 0.736,0.576 1.442,0.383 C 1.697,13.169 2.146,12.752 2.596,12.112 3.043,11.471 3.492,10.75 3.941,9.949 4.389,9.147 4.807,8.299 5.191,7.401 5.576,6.504 5.927,5.703 6.249,4.999 l 0,0.096 C 6.441,4.646 6.6,4.244 6.729,3.894 6.857,3.54 6.984,3.269 7.114,3.076 l 0,0.096 4.229,-9.901 c 1.986,-4.614 3.99,-9.276 6.008,-13.987 2.019,-4.71 4.245,-9.276 6.681,-13.698 0.769,-1.475 1.826,-2.436 3.173,-2.884 1.345,-0.449 2.723,-0.737 4.133,-0.865 l 0,-1.73 c -1.538,-0.129 -3.076,-0.225 -4.614,-0.289"
             id="path3512"
             style="fill:#f7931e;fill-opacity:1;fill-rule:nonzero;stroke:none"
             inkscape:connector-curvature="0" /></g><g
           transform="translate(440.6836,224.4473)"
           id="g3514"><path
             d="m 0,0 c -0.033,-0.161 -0.048,-0.336 -0.048,-0.528 -0.129,-1.284 -0.257,-2.548 -0.385,-3.798 -0.129,-1.249 -0.513,-2.451 -1.153,-3.605 0.192,-0.064 0.319,-0.081 0.385,-0.048 0.062,0.032 0.191,0.015 0.384,-0.047 l -0.288,-1.731 c -1.475,0.128 -2.965,0.207 -4.47,0.24 -1.507,0.032 -2.997,0.048 -4.47,0.048 l -4.614,0 c -1.476,0 -2.981,-0.033 -4.519,-0.095 -1.282,0 -2.594,-0.017 -3.941,-0.048 -1.346,-0.034 -2.659,-0.049 -3.941,-0.049 -3.333,0 -6.569,0.097 -9.709,0.289 -0.641,0.062 -0.946,0.367 -0.913,0.913 0.032,0.544 0.368,0.816 1.009,0.816 1.731,0.064 2.884,0.641 3.461,1.731 0.577,1.089 0.865,2.467 0.865,4.134 l 0,39.027 c 0,1.474 -0.337,2.387 -1.009,2.74 -0.673,0.352 -1.363,0.561 -2.067,0.625 -0.577,0.063 -1.202,0.176 -1.874,0.336 -0.673,0.159 -1.106,0.433 -1.298,0.818 -0.193,0.32 -0.177,0.608 0.048,0.865 0.224,0.255 0.56,0.385 1.009,0.385 l 5.383,0 c 0.962,0 1.906,0.014 2.836,0.047 0.928,0.032 1.875,0.048 2.836,0.048 1.409,0 2.836,-0.033 4.278,-0.095 1.441,-0.066 2.835,-0.289 4.182,-0.673 0.511,-0.13 0.735,-0.433 0.672,-0.914 -0.065,-0.481 -0.384,-0.721 -0.961,-0.721 l -1.154,0 c -1.091,0.128 -2.035,-0.112 -2.836,-0.721 -0.802,-0.61 -1.201,-1.49 -1.201,-2.643 l 0,-35.856 c 0,-1.283 0.272,-2.403 0.816,-3.364 0.544,-0.962 1.25,-1.764 2.116,-2.403 0.865,-0.642 1.858,-1.122 2.979,-1.443 1.121,-0.321 2.26,-0.48 3.413,-0.48 2.37,0 4.662,0.608 6.873,1.826 2.211,1.217 3.925,2.947 5.143,5.191 0.32,0.384 0.769,0.529 1.346,0.433 C -0.24,1.153 0.048,0.88 0.048,0.433 0.048,0.304 0.031,0.159 0,0"
             id="path3516"
             style="fill:#f7931e;fill-opacity:1;fill-rule:nonzero;stroke:none"
             inkscape:connector-curvature="0" /></g><g
           transform="translate(483.749,224.4473)"
           id="g3518"><path
             d="m 0,0 c -0.033,-0.161 -0.049,-0.336 -0.049,-0.528 -0.129,-1.284 -0.257,-2.548 -0.384,-3.798 -0.129,-1.249 -0.513,-2.451 -1.154,-3.605 0.192,-0.064 0.32,-0.081 0.385,-0.048 0.063,0.032 0.192,0.015 0.385,-0.047 l -0.288,-1.731 c -1.476,0.128 -2.966,0.207 -4.471,0.24 -1.506,0.032 -2.996,0.048 -4.47,0.048 l -4.614,0 c -1.475,0 -2.98,-0.033 -4.518,-0.095 -1.283,0 -2.595,-0.017 -3.941,-0.048 -1.346,-0.034 -2.66,-0.049 -3.942,-0.049 -3.333,0 -6.569,0.097 -9.709,0.289 -0.64,0.062 -0.946,0.367 -0.913,0.913 0.032,0.544 0.369,0.816 1.01,0.816 1.731,0.064 2.884,0.641 3.46,1.731 0.577,1.089 0.865,2.467 0.865,4.134 l 0,39.027 c 0,1.474 -0.336,2.387 -1.008,2.74 -0.673,0.352 -1.363,0.561 -2.068,0.625 -0.576,0.063 -1.201,0.176 -1.874,0.336 -0.673,0.159 -1.105,0.433 -1.298,0.818 -0.192,0.32 -0.176,0.608 0.048,0.865 0.224,0.255 0.561,0.385 1.01,0.385 l 5.383,0 c 0.961,0 1.906,0.014 2.836,0.047 0.927,0.032 1.874,0.048 2.836,0.048 1.408,0 2.836,-0.033 4.277,-0.095 1.442,-0.066 2.836,-0.289 4.182,-0.673 0.512,-0.13 0.736,-0.433 0.672,-0.914 -0.064,-0.481 -0.384,-0.721 -0.96,-0.721 l -1.154,0 c -1.091,0.128 -2.036,-0.112 -2.836,-0.721 -0.802,-0.61 -1.202,-1.49 -1.202,-2.643 l 0,-35.856 c 0,-1.283 0.273,-2.403 0.817,-3.364 0.544,-0.962 1.25,-1.764 2.116,-2.403 0.864,-0.642 1.857,-1.122 2.979,-1.443 1.12,-0.321 2.259,-0.48 3.412,-0.48 2.37,0 4.663,0.608 6.874,1.826 2.211,1.217 3.924,2.947 5.143,5.191 0.319,0.384 0.768,0.529 1.346,0.433 C -0.241,1.153 0.048,0.88 0.048,0.433 0.048,0.304 0.031,0.159 0,0"
             id="path3520"
             style="fill:#f7931e;fill-opacity:1;fill-rule:nonzero;stroke:none"
             inkscape:connector-curvature="0" /></g><g
           transform="translate(508.3096,214.5937)"
           id="g3522"><path
             d="m 0,0 c -1.153,0.063 -2.292,0.063 -3.413,0 -1.121,-0.064 -2.292,-0.064 -3.508,0 l -3.653,0.097 c -0.514,0 -1.154,-0.034 -1.923,-0.097 -0.769,-0.064 -1.586,-0.129 -2.451,-0.191 -0.865,-0.066 -1.698,-0.081 -2.499,-0.049 -0.802,0.032 -1.427,0.144 -1.875,0.337 -0.576,0.192 -0.738,0.591 -0.481,1.201 0.256,0.608 0.673,0.848 1.25,0.722 0.321,-0.13 0.592,-0.145 0.818,-0.049 0.223,0.096 0.399,0.144 0.528,0.144 0.513,0 0.944,0.207 1.298,0.625 0.351,0.416 0.625,0.945 0.817,1.586 0.192,0.64 0.336,1.281 0.433,1.923 0.096,0.64 0.143,1.217 0.143,1.73 l 0,39.124 c 0,1.281 -0.528,2.195 -1.586,2.74 -1.057,0.544 -2.163,0.88 -3.316,1.009 -0.642,0.063 -0.946,0.336 -0.913,0.817 0.031,0.48 0.368,0.753 1.009,0.817 1.538,0.128 3.076,0.128 4.614,0 1.538,-0.129 3.043,-0.192 4.519,-0.192 1.473,0 2.915,0.063 4.325,0.192 1.409,0.128 2.851,0.128 4.326,0 0.577,-0.064 0.88,-0.321 0.913,-0.769 0.031,-0.449 -0.24,-0.738 -0.817,-0.865 -1.283,-0.192 -2.371,-0.481 -3.268,-0.865 -0.898,-0.384 -1.347,-1.346 -1.347,-2.884 l 0,-38.835 c 0,-0.257 0.049,-0.642 0.145,-1.154 0.097,-0.513 0.207,-1.057 0.337,-1.635 0.127,-0.576 0.288,-1.122 0.48,-1.633 C -4.902,3.332 -4.743,2.98 -4.614,2.788 -4.422,2.724 -4.134,2.659 -3.749,2.596 -3.364,2.531 -3.013,2.5 -2.691,2.5 -1.987,2.5 -1.362,2.452 -0.817,2.355 -0.273,2.26 0.255,1.986 0.769,1.538 L 0,0 z"
             id="path3524"
             style="fill:#f7931e;fill-opacity:1;fill-rule:nonzero;stroke:none"
             inkscape:connector-curvature="0" /></g><g
           transform="translate(543.876,222.3809)"
           id="g3526"><path
             d="m 0,0 c -1.476,-1.859 -3.302,-3.43 -5.479,-4.711 -2.18,-1.282 -4.535,-2.259 -7.066,-2.932 -2.532,-0.672 -4.823,-1.008 -6.873,-1.008 -1.026,0 -2.147,0.095 -3.364,0.288 -1.219,0.192 -2.356,0.544 -3.413,1.057 -1.057,0.512 -1.955,1.202 -2.692,2.067 -0.737,0.865 -1.105,1.97 -1.105,3.316 0,0.64 0.08,1.298 0.24,1.971 0.159,0.673 0.368,1.36 0.625,2.066 0.32,0.705 0.513,1.602 0.577,2.692 0,0.256 0.127,0.432 0.384,0.529 0.256,0.096 0.513,0.144 0.77,0.144 0.254,0 0.495,-0.065 0.72,-0.192 0.224,-0.13 0.337,-0.322 0.337,-0.577 l 0,-1.153 c -0.13,-1.346 0.11,-2.516 0.721,-3.509 0.608,-0.994 1.426,-1.826 2.451,-2.499 1.024,-0.673 2.163,-1.171 3.412,-1.49 1.25,-0.322 2.484,-0.481 3.701,-0.481 1.025,0 2.163,0.176 3.413,0.528 1.249,0.352 2.418,0.849 3.508,1.491 1.09,0.639 1.987,1.441 2.693,2.403 0.704,0.961 1.056,2.081 1.056,3.364 0,1.154 -0.336,2.307 -1.009,3.461 -0.672,1.154 -1.538,2.338 -2.595,3.557 -1.058,1.216 -2.244,2.403 -3.557,3.556 -1.314,1.154 -2.643,2.307 -3.989,3.46 -1.538,1.282 -3.062,2.596 -4.567,3.942 -1.505,1.346 -2.868,2.707 -4.085,4.086 -1.217,1.377 -2.196,2.754 -2.931,4.133 -0.738,1.378 -1.106,2.802 -1.106,4.278 0,2.37 0.752,4.357 2.259,5.96 1.505,1.6 3.348,2.884 5.527,3.845 2.178,0.961 4.47,1.649 6.874,2.066 2.403,0.416 4.469,0.625 6.2,0.625 2.755,0 5.446,-0.288 8.074,-0.865 0.705,-0.129 0.993,-0.449 0.865,-0.961 l 0,-2.692 c 0,-1.283 -0.048,-2.581 -0.143,-3.893 -0.097,-1.315 -0.53,-2.388 -1.298,-3.22 -0.385,-0.322 -0.818,-0.418 -1.298,-0.289 -0.481,0.128 -0.721,0.416 -0.721,0.865 0,1.217 -0.273,2.275 -0.817,3.173 -0.545,0.897 -1.25,1.665 -2.115,2.307 -0.865,0.639 -1.827,1.12 -2.884,1.442 -1.057,0.32 -2.131,0.481 -3.22,0.481 -1.091,0 -2.163,-0.178 -3.221,-0.53 -1.056,-0.352 -2.003,-0.849 -2.836,-1.489 -0.833,-0.641 -1.505,-1.442 -2.018,-2.403 -0.514,-0.962 -0.769,-2.052 -0.769,-3.269 0,-1.091 0.304,-2.179 0.913,-3.268 0.609,-1.09 1.41,-2.163 2.404,-3.22 0.993,-1.058 2.098,-2.067 3.316,-3.028 1.217,-0.961 2.403,-1.892 3.557,-2.788 1.473,-1.154 2.979,-2.324 4.517,-3.509 1.538,-1.187 2.916,-2.451 4.134,-3.797 1.217,-1.346 2.211,-2.756 2.981,-4.23 C 1.826,9.676 2.211,8.106 2.211,6.44 2.211,4.004 1.474,1.857 0,0"
             id="path3528"
             style="fill:#f7931e;fill-opacity:1;fill-rule:nonzero;stroke:none"
             inkscape:connector-curvature="0" /></g><g
           transform="translate(565.3809,218.3428)"
           id="g3530"><path
             d="M 0,0 C -0.354,-0.576 -0.803,-1.09 -1.347,-1.538 -1.892,-1.986 -2.5,-2.34 -3.173,-2.595 c -0.673,-0.257 -1.33,-0.384 -1.971,-0.384 -1.474,0 -2.611,0.625 -3.412,1.874 -0.801,1.25 -1.202,2.483 -1.202,3.701 0,1.281 0.433,2.403 1.298,3.364 0.865,0.962 2.067,1.442 3.606,1.442 1.472,0 2.739,-0.593 3.796,-1.778 C 0,4.437 0.528,3.204 0.528,1.923 0.528,1.217 0.351,0.577 0,0"
             id="path3532"
             style="fill:#000000;fill-opacity:1;fill-rule:nonzero;stroke:none"
             inkscape:connector-curvature="0" /></g><g
           transform="translate(658.7451,299.4316)"
           id="g3534"><path
             d="m 0,0 c -4.406,-1.218 -8.939,-1.064 -13.431,-1.391 -2.79,0.274 -5.585,0.511 -8.37,0.828 -9.624,1.092 -19.267,1.801 -28.957,1.272 -1.763,-0.098 -4.183,0.209 -3.91,-2.708 0.321,-3.419 2.681,-1.129 3.868,-0.969 11.363,1.54 22.714,0.946 34.085,0.224 2.252,-0.143 2.461,-1.401 2.58,-3.036 -0.32,-4.151 -0.578,-8.309 -0.947,-12.455 -1.574,-2.442 -2.992,-4.934 -4.237,-7.484 -1.346,-2.756 -2.66,-5.479 -3.942,-8.171 l -1.923,-4.229 c -1.345,-2.948 -2.691,-5.832 -4.037,-8.652 -1.345,-2.821 -2.66,-5.671 -3.941,-8.555 -1.538,-3.398 -3.076,-6.729 -4.614,-9.997 -1.538,-3.269 -3.141,-6.602 -4.807,-9.997 -0.705,1.28 -1.506,2.898 -2.402,4.853 -0.899,1.954 -2.149,4.598 -3.749,7.931 -1.346,2.819 -2.788,5.8 -4.327,8.94 -1.538,3.139 -3.076,6.28 -4.614,9.42 -1.538,3.14 -3.044,6.184 -4.517,9.133 -1.476,2.946 -2.853,5.606 -4.134,7.979 -0.815,1.505 -1.572,2.861 -2.283,4.096 0.995,1.197 1.639,2.87 2.026,5.051 0.924,5.212 2.051,10.401 2.938,15.636 0.951,5.598 3.563,7.996 9.117,9.208 1.719,0.376 3.633,-0.228 5.419,1.068 C -56.38,8.72 -63.266,9.11 -67.623,1.842 -67.906,1.371 -68.61,0.875 -69.125,0.868 -78.261,0.744 -87.488,0.746 -94.794,7.376 c -5.162,4.683 -4.065,11.402 1.976,14.864 2.502,1.434 5.178,2.073 8.05,2.231 8.102,0.442 15.342,-2.051 22.16,-6.537 -1.662,8.939 -0.922,11.406 4.825,14.236 6.185,3.047 12.835,4.129 19.632,2.961 8.741,-1.503 11.709,-5.264 11.406,-13.652 -0.705,-2.137 -3.116,-1.507 -4.864,-2.631 2.641,-0.374 4.811,-0.681 6.938,-0.982 -0.343,0.918 -0.647,1.734 -0.952,2.55 6.858,6.3 15.107,7.706 23.958,6.56 C 5.712,26.021 12.212,20.089 12.718,14.208 13.232,8.229 7.747,2.141 0,0 m -74.907,-25.194 c -0.165,-1.537 -0.348,-3.207 -0.551,-5.043 -0.321,-3.268 -0.689,-6.841 -1.105,-10.718 -0.418,-3.878 -0.834,-7.803 -1.25,-11.775 -0.417,-3.975 -0.85,-7.869 -1.298,-11.68 -0.45,-3.814 -0.866,-7.258 -1.249,-10.334 -0.385,-3.076 -0.755,-5.623 -1.106,-7.642 -0.353,-2.019 -0.625,-3.254 -0.817,-3.701 -0.385,-0.834 -0.851,-1.331 -1.394,-1.49 -0.546,-0.16 -1.171,-0.305 -1.875,-0.433 -0.321,-0.064 -0.817,-0.16 -1.49,-0.288 -0.673,-0.129 -1.009,-0.161 -1.009,-0.097 -0.321,-0.256 -0.432,-0.561 -0.337,-0.913 0.097,-0.352 0.4,-0.561 0.913,-0.625 3.269,-0.191 6.552,-0.255 9.854,-0.191 3.3,0.064 6.585,0.096 9.853,0.096 0.64,0 1.009,0.207 1.106,0.625 0.096,0.416 -0.113,0.72 -0.625,0.913 -0.834,0.385 -1.555,0.916 -2.163,1.174 -0.611,0.255 -1.17,-0.116 -1.683,0.884 l 0.097,0 c -0.642,0 -1.122,0.27 -1.443,0.461 -0.321,0.192 -0.561,0.342 -0.72,0.663 -0.161,0.32 -0.362,0.715 -0.393,1.292 -0.033,0.578 -0.153,1.357 -0.153,2.447 l 0,2.788 c 0,4.422 0.36,8.923 0.874,13.506 0.512,4.581 1.142,9.084 1.782,13.505 0.256,1.731 0.522,3.493 0.747,5.288 0.224,1.793 0.413,3.587 0.542,5.382 0.77,-1.41 1.415,-2.66 1.929,-3.749 0.513,-1.089 0.997,-2.147 1.446,-3.172 0.447,-1.026 0.914,-2.099 1.395,-3.22 0.48,-1.122 1.073,-2.419 1.779,-3.893 2.691,-5.96 5.464,-11.824 8.316,-17.592 2.851,-5.767 6.263,-11.342 10.238,-16.725 0.319,-0.257 0.673,-0.385 1.057,-0.385 0.384,0 0.673,0.159 0.866,0.481 1.215,2.499 2.402,4.982 3.556,7.45 1.154,2.466 2.307,4.917 3.46,7.353 2.692,5.703 5.384,11.375 8.075,17.015 2.692,5.639 5.48,11.247 8.364,16.822 0.127,-1.41 0.255,-2.66 0.383,-3.749 0.128,-1.091 0.256,-2.163 0.385,-3.22 0.128,-1.057 0.256,-2.131 0.385,-3.22 0.128,-1.091 0.288,-2.34 0.48,-3.749 0.578,-4.615 1.089,-9.469 1.539,-14.564 0.447,-5.095 0.672,-9.949 0.672,-14.563 0,-0.833 -0.016,-1.651 -0.047,-2.451 -0.034,-0.802 -0.178,-1.62 -0.433,-2.452 -0.129,-0.321 -0.081,-0.592 0.143,-0.817 0.225,-0.225 0.53,-0.336 0.915,-0.336 3.267,-0.192 6.519,-0.256 9.756,-0.192 3.236,0.063 6.52,0.095 9.853,0.095 l 0.385,1.538 c -0.706,0.321 -1.394,0.561 -2.067,0.722 -0.673,0.159 -1.298,0.303 -1.875,0.433 -1.025,0.191 -2.004,0.464 -2.931,0.816 -0.93,0.352 -1.779,1.169 -2.548,2.451 -0.384,0.641 -0.754,1.666 -1.106,3.077 -0.352,1.409 -0.689,3.059 -1.008,4.951 -0.322,1.889 -0.611,3.941 -0.866,6.152 -0.257,2.211 -0.513,4.453 -0.769,6.729 -0.257,2.274 -0.481,4.517 -0.673,6.728 -0.192,2.211 -0.353,4.245 -0.481,6.105 -0.128,1.409 -0.24,2.707 -0.336,3.893 -0.096,1.185 -0.177,2.13 -0.24,2.835 -0.449,4.231 -0.913,8.475 -1.394,12.737 -0.425,3.772 -0.868,7.527 -1.319,11.274 0.116,0.083 0.229,0.171 0.345,0.251 0.304,4.02 0.659,8.039 0.809,12.064 0.095,2.59 1.236,3.363 3.767,3.565 4.665,0.375 9.338,1.079 13.576,3.306 5.731,3.013 9.998,7.107 9.698,14.203 -0.289,6.822 -4.524,10.724 -10.336,13.224 -8.301,3.57 -16.741,3.373 -25.156,0.424 -1.776,-0.622 -2.997,-1.315 -3.549,1.377 -0.883,4.29 -4.022,6.367 -7.999,7.723 -5.162,1.757 -10.438,1.847 -15.766,1.767 -4.757,-0.07 -9.362,-0.922 -13.565,-3.196 -4.427,-2.398 -6.087,-6.685 -6.82,-11.702 -7.742,3.413 -15.475,4.208 -23.368,3.464 -7.447,-0.702 -12.522,-5.084 -13.645,-11.491 -1.028,-5.859 1.838,-10.509 8.639,-14.044 2.373,-1.234 4.886,-2.03 7.489,-2.645 6.929,-1.636 13.904,-0.85 20.977,-0.234 -0.476,-5.839 -2.934,-10.842 -5.318,-15.849"
             id="path3536"
             style="fill:#000000;fill-opacity:1;fill-rule:nonzero;stroke:none"
             inkscape:connector-curvature="0" /></g><g
           transform="translate(610.1211,288.9121)"
           id="g3538"><path
             d="M 0,0 C 3.191,1.123 6.489,0.934 9.763,0.957 16.936,1.009 24.109,0.973 29.998,0.973 22.701,2.942 13.717,3.71 4.729,4.377 2.899,4.513 1.017,3.985 -0.838,3.733 -2.615,3.494 -2.509,2.167 -2.403,0.889 -2.244,-1.063 -0.878,-0.309 0,0"
             id="path3540"
             style="fill:#000000;fill-opacity:1;fill-rule:nonzero;stroke:none"
             inkscape:connector-curvature="0" /></g><g
           transform="translate(699.2178,215.459)"
           id="g3542"><path
             d="m 0,0 -0.77,-0.384 c -0.383,-0.13 -1.122,-0.192 -2.21,-0.192 -1.09,0 -2.259,0.014 -3.509,0.048 -1.249,0.031 -2.436,0.063 -3.557,0.095 -1.122,0.033 -1.907,0.049 -2.354,0.049 -1.027,0 -2.052,-0.016 -3.077,-0.049 -1.026,-0.032 -2.051,-0.047 -3.076,-0.047 -2.307,0 -4.614,-0.017 -6.921,-0.048 -2.307,-0.034 -4.583,0.014 -6.825,0.144 -0.577,0.063 -0.85,0.367 -0.817,0.913 0.031,0.544 0.337,0.817 0.913,0.817 1.794,0.063 2.98,0.625 3.557,1.682 0.577,1.058 0.865,2.451 0.865,4.182 l 0,39.412 c 0,1.089 -0.305,1.811 -0.913,2.163 -0.61,0.352 -1.267,0.592 -1.971,0.721 -0.514,0.128 -1.042,0.256 -1.586,0.385 -0.545,0.128 -1.074,0.351 -1.586,0.672 -0.514,0.256 -0.673,0.578 -0.48,0.961 0.191,0.385 0.576,0.578 1.153,0.578 0.576,0 1.329,-0.017 2.259,-0.048 0.928,-0.033 1.97,-0.048 3.124,-0.048 1.858,-0.066 3.877,-0.113 6.056,-0.145 2.178,-0.033 4.389,-0.048 6.633,-0.048 3.203,0 6.118,0.063 8.747,0.193 2.627,0.127 4.389,0.35 5.287,0.673 0.448,0.127 0.832,0.095 1.154,-0.097 0.32,-0.192 0.448,-0.449 0.384,-0.769 -0.128,-1.218 -0.321,-2.34 -0.577,-3.365 -0.257,-1.025 -0.513,-2.051 -0.768,-3.075 -0.129,-0.449 -0.226,-0.865 -0.288,-1.25 -0.066,-0.385 -0.161,-0.769 -0.289,-1.153 -0.129,-0.449 -0.514,-0.673 -1.154,-0.673 -0.641,0 -0.994,0.255 -1.057,0.768 -0.065,1.089 -0.322,1.955 -0.769,2.596 -0.449,0.64 -1.026,1.137 -1.73,1.49 -0.706,0.352 -1.507,0.592 -2.404,0.721 -0.898,0.128 -1.795,0.192 -2.691,0.192 -0.514,0 -1.01,-0.016 -1.49,-0.047 -0.481,-0.034 -0.978,-0.049 -1.491,-0.049 -0.448,0 -0.929,-0.017 -1.441,-0.048 -0.514,-0.033 -1.026,-0.048 -1.538,-0.048 l -1.73,0 0,-18.36 11.535,0 c 0.32,0 0.736,0.111 1.25,0.336 0.511,0.224 1.057,0.432 1.633,0.625 l -0.095,0 c 0.511,0.256 0.976,0.608 1.393,1.057 0.416,0.448 0.818,0.737 1.202,0.866 0.448,0.127 0.817,0.079 1.106,-0.145 0.288,-0.225 0.399,-0.497 0.336,-0.816 -0.129,-0.834 -0.24,-1.828 -0.336,-2.981 -0.097,-1.153 -0.209,-2.147 -0.337,-2.979 -0.129,-0.77 -0.257,-1.538 -0.385,-2.308 -0.129,-0.769 -0.257,-1.603 -0.384,-2.499 -0.064,-0.321 -0.289,-0.545 -0.672,-0.673 -0.385,-0.129 -0.739,-0.064 -1.058,0.192 -0.77,0.448 -1.139,0.752 -1.105,0.914 0.031,0.159 0.014,0.399 -0.048,0.72 -0.193,0.577 -0.402,1.12 -0.625,1.634 -0.226,0.513 -0.433,0.833 -0.625,0.962 -0.322,0.255 -0.961,0.464 -1.923,0.625 -0.961,0.159 -2.035,0.271 -3.22,0.336 -1.186,0.063 -2.355,0.097 -3.509,0.097 l -2.883,0 -1.25,0 0,-18.65 c 1.024,-1.41 2.466,-2.435 4.326,-3.076 1.857,-0.641 3.619,-0.961 5.287,-0.961 2.05,0 3.94,0.496 5.671,1.49 1.73,0.993 2.883,2.611 3.461,4.855 0.062,0.192 0.223,0.336 0.48,0.432 0.256,0.096 0.513,0.127 0.77,0.096 C 1.312,9.628 1.553,9.532 1.778,9.373 2.002,9.212 2.081,9.036 2.019,8.844 L 0,0 z"
             id="path3544"
             style="fill:#000000;fill-opacity:1;fill-rule:nonzero;stroke:none"
             inkscape:connector-curvature="0" /></g><g
           transform="translate(769.3906,265.542)"
           id="g3546"><path
             d="m 0,0 c -0.577,-0.064 -1.058,-0.161 -1.442,-0.288 l 0.096,0 c -0.769,-0.192 -1.538,-0.449 -2.307,-0.77 -0.769,-0.321 -1.154,-0.834 -1.154,-1.538 l 0,-6.055 c 0,-1.923 0.032,-3.878 0.096,-5.865 0,-1.859 0.016,-3.892 0.049,-6.103 0.031,-2.211 0.048,-4.215 0.048,-6.009 0,-4.101 -0.065,-8.155 -0.193,-12.16 -0.129,-4.005 -0.384,-8.026 -0.769,-12.064 -0.065,-0.384 -0.288,-0.625 -0.673,-0.72 -0.384,-0.097 -0.769,-0.049 -1.153,0.143 -7.178,5.384 -13.955,11.135 -20.331,17.255 -6.377,6.119 -12.641,12.288 -18.793,18.505 l 0.096,0 -4.999,4.902 c -0.064,-0.576 -0.095,-1.153 -0.095,-1.73 l 0,-1.826 c 0,-2.437 0.047,-4.839 0.143,-7.209 0.097,-2.372 0.208,-4.776 0.337,-7.21 0.128,-2.372 0.224,-4.743 0.288,-7.113 0.064,-2.373 0.097,-4.776 0.097,-7.21 0,-1.09 0.096,-1.971 0.288,-2.644 0.192,-0.673 0.464,-1.17 0.817,-1.49 0.351,-0.322 0.736,-0.545 1.154,-0.673 0.416,-0.129 0.848,-0.225 1.297,-0.288 0.577,-0.129 1.185,-0.24 1.827,-0.336 0.639,-0.097 1.25,-0.37 1.826,-0.817 0.512,-0.257 0.673,-0.578 0.48,-0.961 -0.192,-0.385 -0.576,-0.578 -1.153,-0.578 -1.09,0.064 -2.211,0.08 -3.364,0.048 -1.154,-0.033 -2.276,-0.048 -3.365,-0.048 l -3.365,0 c -1.474,0 -2.931,0.032 -4.373,0.096 -1.442,0.064 -2.836,0.256 -4.181,0.577 -0.578,0.128 -0.818,0.448 -0.721,0.961 0.096,0.513 0.431,0.77 1.009,0.77 l 1.153,0 c 1.089,-0.129 2.018,0.143 2.788,0.816 0.769,0.674 1.153,1.65 1.153,2.933 l 0,45.372 c 0,0.512 0.16,0.944 0.481,1.298 0.32,0.351 0.64,0.656 0.962,0.913 0.192,0.128 0.432,0.176 0.72,0.144 0.288,-0.033 0.496,-0.113 0.625,-0.241 7.369,-6.793 14.674,-13.635 21.917,-20.522 7.242,-6.89 14.451,-13.86 21.629,-20.909 0.063,1.986 0.063,3.925 0,5.816 -0.064,1.89 -0.13,3.829 -0.192,5.816 -0.129,1.601 -0.226,3.3 -0.289,5.095 -0.065,1.793 -0.096,3.492 -0.096,5.095 0,1.024 0.015,2.018 0.048,2.979 0.032,0.962 0.048,1.954 0.048,2.981 l 0,5.863 c 0,1.024 -0.129,1.842 -0.384,2.451 -0.257,0.609 -0.577,1.058 -0.962,1.346 -0.384,0.289 -0.802,0.481 -1.249,0.577 -0.449,0.096 -0.898,0.176 -1.346,0.24 -1.218,0.128 -2.21,0.416 -2.98,0.865 -0.449,0.193 -0.576,0.481 -0.385,0.866 0.193,0.384 0.544,0.577 1.058,0.577 l 3.461,0.096 c 2.37,0.063 4.71,0.047 7.017,-0.048 2.307,-0.097 4.614,-0.209 6.921,-0.337 L 0,0 z"
             id="path3548"
             style="fill:#000000;fill-opacity:1;fill-rule:nonzero;stroke:none"
             inkscape:connector-curvature="0" /></g><g
           transform="translate(830.6709,264.3887)"
           id="g3550"><path
             d="m 0,0 c -0.994,-0.514 -1.49,-1.411 -1.49,-2.692 l 0,-26.627 c 0,-3.269 -0.61,-6.234 -1.826,-8.892 -1.219,-2.66 -2.87,-4.935 -4.952,-6.825 -2.083,-1.891 -4.534,-3.35 -7.353,-4.374 -2.82,-1.026 -5.801,-1.538 -8.94,-1.538 -2.564,0 -5.272,0.337 -8.123,1.01 -2.852,0.672 -5.479,1.697 -7.882,3.076 -2.404,1.377 -4.39,3.124 -5.96,5.238 -1.571,2.115 -2.355,4.614 -2.355,7.498 l 0,-0.096 c 0,0.577 -0.048,1.12 -0.144,1.634 -0.096,0.513 -0.145,0.962 -0.145,1.346 l 0,28.454 c 0,1.601 -0.4,2.562 -1.201,2.884 -0.802,0.32 -1.586,0.512 -2.356,0.577 -0.768,0.127 -1.426,0.223 -1.97,0.288 -0.545,0.063 -0.881,0.447 -1.009,1.153 -0.129,0.64 0.255,0.962 1.153,0.962 l 2.981,0 c 5.254,0 10.541,-0.192 15.86,-0.577 0.577,-0.064 0.865,-0.353 0.865,-0.865 0,-0.449 -0.288,-0.706 -0.865,-0.769 -1.282,-0.13 -2.371,-0.401 -3.267,-0.817 -0.899,-0.418 -1.347,-1.331 -1.347,-2.74 l 0,-15.092 c 0,-2.564 -0.016,-5.112 -0.048,-7.642 -0.033,-2.532 -0.048,-5.047 -0.048,-7.546 0,-2.244 0.447,-4.215 1.346,-5.912 0.896,-1.699 2.082,-3.124 3.556,-4.278 1.474,-1.153 3.157,-2.019 5.047,-2.595 1.89,-0.577 3.861,-0.865 5.912,-0.865 2.05,0 4.052,0.304 6.008,0.913 1.954,0.608 3.685,1.505 5.191,2.691 1.505,1.186 2.707,2.644 3.605,4.374 0.897,1.731 1.346,3.749 1.346,6.056 l 0,7.402 c 0,2.499 -0.033,4.999 -0.097,7.499 -0.064,2.434 -0.096,4.902 -0.096,7.401 l 0,7.498 c 0,0.769 -0.112,1.377 -0.336,1.826 -0.225,0.448 -0.498,0.784 -0.817,1.01 -0.321,0.223 -0.689,0.368 -1.105,0.432 -0.418,0.063 -0.818,0.128 -1.202,0.193 -0.707,0.062 -1.363,0.143 -1.971,0.24 -0.61,0.096 -0.978,0.495 -1.106,1.201 -0.129,0.64 0.256,0.962 1.155,0.962 2.883,0 5.734,-0.033 8.554,-0.097 2.82,-0.064 5.639,-0.192 8.459,-0.384 L 3.124,0.961 C 2.033,0.832 0.992,0.512 0,0"
             id="path3552"
             style="fill:#000000;fill-opacity:1;fill-rule:nonzero;stroke:none"
             inkscape:connector-curvature="0" /></g><g
           transform="translate(256.6899,239.4248)"
           id="g3554"><path
             d="m 0,0 0.783,0 c 3.691,0.001 7.383,0.03 11.073,-0.018 1.108,-0.014 2.095,0.2 3.069,0.717 2.236,1.191 4.296,2.597 5.864,4.618 2.693,3.47 3.346,7.431 2.603,11.651 -0.849,4.821 -3.878,7.936 -8.186,9.905 -3.985,1.82 -8.209,1.838 -12.464,1.425 C 1.415,28.17 0.649,27.332 0.318,26.119 0.123,25.411 0.021,24.653 0.019,23.917 -0.004,16.153 0.001,8.39 0,0.626 0,0.446 0,0.269 0,0 m 16.151,-0.901 c 4.87,-4.294 9.177,-9.056 13.645,-13.657 4.995,-5.143 10.148,-10.117 15.928,-14.387 4.153,-3.07 8.531,-5.739 13.46,-7.4 6.553,-2.207 13.006,-1.823 19.377,0.74 0.064,0.025 0.132,0.042 0.209,0.067 -0.139,-0.586 -0.812,-1.297 -1.677,-1.813 -2.037,-1.216 -4.279,-1.882 -6.552,-2.462 -2.35,-0.6 -4.72,-0.974 -7.164,-0.856 -2.946,0.144 -5.792,0.748 -8.561,1.719 -5.728,2.007 -10.796,5.171 -15.534,8.904 -4.819,3.799 -9.275,8.001 -13.657,12.288 -3.715,3.636 -7.412,7.292 -11.171,10.882 -1.681,1.605 -3.475,3.096 -5.482,4.301 -0.493,0.295 -0.994,0.461 -1.589,0.453 -2.274,-0.028 -4.546,-0.021 -6.82,-0.002 -0.422,0.003 -0.57,-0.117 -0.569,-0.55 0.01,-6.093 -0.016,-12.184 0.017,-18.276 0.015,-2.683 1.217,-4.377 3.554,-5.071 0.878,-0.259 1.816,-0.321 2.728,-0.461 0.193,-0.029 0.396,-0.004 0.67,-0.004 0.037,-0.355 0.072,-0.683 0.125,-1.19 -6.827,0.767 -13.583,0.787 -20.421,-0.014 0.038,0.494 0.062,0.825 0.078,1.02 1.302,0.254 2.536,0.389 3.703,0.746 2.07,0.634 3.265,2.335 3.331,4.497 0.013,0.417 0.009,0.837 0.009,1.254 0,14.694 0.007,29.389 -0.021,44.083 -0.002,0.85 -0.161,1.755 -0.479,2.539 -0.721,1.776 -2.283,2.507 -4.053,2.842 -0.798,0.151 -1.617,0.197 -2.485,0.299 -0.024,0.292 -0.05,0.611 -0.083,1.03 1.062,-0.063 2.071,-0.101 3.075,-0.191 3.354,-0.301 6.708,-0.399 10.075,-0.231 3.413,0.171 6.83,0.333 10.246,0.34 3.583,0.009 7.086,-0.582 10.414,-1.995 2.487,-1.058 4.752,-2.438 6.515,-4.535 2.059,-2.449 2.827,-5.318 2.71,-8.46 C 29.619,13.325 29.112,11.203 28.135,9.195 26.917,6.696 25.158,4.646 23,2.922 21.024,1.344 18.827,0.153 16.471,-0.751 c -0.098,-0.038 -0.191,-0.09 -0.32,-0.15"
             id="path3556"
             style="fill:#f7931e;fill-opacity:1;fill-rule:evenodd;stroke:none"
             inkscape:connector-curvature="0" /></g><g
           transform="translate(256.6899,239.4248)"
           id="g3558"><path
             d="m 0,0 0.783,0 c 3.691,0.001 7.383,0.03 11.073,-0.018 1.108,-0.014 2.095,0.2 3.069,0.717 2.236,1.191 4.296,2.597 5.864,4.618 2.693,3.47 3.346,7.431 2.603,11.651 -0.849,4.821 -3.878,7.936 -8.186,9.905 -3.985,1.82 -8.209,1.838 -12.464,1.425 C 1.415,28.17 0.649,27.332 0.318,26.119 0.123,25.411 0.021,24.653 0.019,23.917 -0.004,16.153 0.001,8.39 0,0.626 0,0.446 0,0.269 0,0 z m 16.151,-0.901 c 4.87,-4.294 9.177,-9.056 13.645,-13.657 4.995,-5.143 10.148,-10.117 15.928,-14.387 4.153,-3.07 8.531,-5.739 13.46,-7.4 6.553,-2.207 13.006,-1.823 19.377,0.74 0.064,0.025 0.132,0.042 0.209,0.067 -0.139,-0.586 -0.812,-1.297 -1.677,-1.813 -2.037,-1.216 -4.279,-1.882 -6.552,-2.462 -2.35,-0.6 -4.72,-0.974 -7.164,-0.856 -2.946,0.144 -5.792,0.748 -8.561,1.719 -5.728,2.007 -10.796,5.171 -15.534,8.904 -4.819,3.799 -9.275,8.001 -13.657,12.288 -3.715,3.636 -7.412,7.292 -11.171,10.882 -1.681,1.605 -3.475,3.096 -5.482,4.301 -0.493,0.295 -0.994,0.461 -1.589,0.453 -2.274,-0.028 -4.546,-0.021 -6.82,-0.002 -0.422,0.003 -0.57,-0.117 -0.569,-0.55 0.01,-6.093 -0.016,-12.184 0.017,-18.276 0.015,-2.683 1.217,-4.377 3.554,-5.071 0.878,-0.259 1.816,-0.321 2.728,-0.461 0.193,-0.029 0.396,-0.004 0.67,-0.004 0.037,-0.355 0.072,-0.683 0.125,-1.19 -6.827,0.767 -13.583,0.787 -20.421,-0.014 0.038,0.494 0.062,0.825 0.078,1.02 1.302,0.254 2.536,0.389 3.703,0.746 2.07,0.634 3.265,2.335 3.331,4.497 0.013,0.417 0.009,0.837 0.009,1.254 0,14.694 0.007,29.389 -0.021,44.083 -0.002,0.85 -0.161,1.755 -0.479,2.539 -0.721,1.776 -2.283,2.507 -4.053,2.842 -0.798,0.151 -1.617,0.197 -2.485,0.299 -0.024,0.292 -0.05,0.611 -0.083,1.03 1.062,-0.063 2.071,-0.101 3.075,-0.191 3.354,-0.301 6.708,-0.399 10.075,-0.231 3.413,0.171 6.83,0.333 10.246,0.34 3.583,0.009 7.086,-0.582 10.414,-1.995 2.487,-1.058 4.752,-2.438 6.515,-4.535 2.059,-2.449 2.827,-5.318 2.71,-8.46 C 29.619,13.325 29.112,11.203 28.135,9.195 26.917,6.696 25.158,4.646 23,2.922 21.024,1.344 18.827,0.153 16.471,-0.751 c -0.098,-0.038 -0.191,-0.09 -0.32,-0.15 z"
             id="path3560"
             style="fill:none;stroke:#f7931e;stroke-width:2;stroke-linecap:butt;stroke-linejoin:miter;stroke-miterlimit:10;stroke-opacity:1;stroke-dasharray:none"
             inkscape:connector-curvature="0" /></g></g></g></g></svg>